<?xml version="1.0" standalone="no"?>
<!DOCTYPE svg PUBLIC "-//W3C//DTD SVG 1.1//EN" "http://www.w3.org/Graphics/SVG/1.1/DTD/svg11.dtd" >
<svg xmlns="http://www.w3.org/2000/svg" xmlns:xlink="http://www.w3.org/1999/xlink" version="1.1">
<metadata>
Created by FontForge 20170731 at Wed Mar 17 00:20:17 2021
 By Aleksey,,,
Released in 2020 under CC0 license. No rights reserved.
</metadata>
<defs>
<font id="HammaMammaJamma-Regular" horiz-adv-x="688" >
  <font-face 
    font-family="Hamma Mamma Jamma"
    font-weight="400"
    font-stretch="normal"
    units-per-em="2048"
    panose-1="4 1 5 6 0 0 0 2 0 3"
    ascent="1358"
    descent="-690"
    x-height="846"
    cap-height="1389"
    bbox="-356 -690 1487 1767"
    underline-thickness="40"
    underline-position="-312"
    unicode-range="U+0020-2212"
  />
<missing-glyph horiz-adv-x="993" 
d="M709 0h-426q-213 0 -213 184v1073q0 187 213 187h426q215 0 215 -187v-1073q0 -184 -215 -184zM809 184v1073q0 86 -100 86h-426q-101 0 -101 -86v-1073q0 -86 101 -86h426q100 0 100 86z" />
    <glyph glyph-name=".notdef" horiz-adv-x="993" 
d="M709 0h-426q-213 0 -213 184v1073q0 187 213 187h426q215 0 215 -187v-1073q0 -184 -215 -184zM809 184v1073q0 86 -100 86h-426q-101 0 -101 -86v-1073q0 -86 101 -86h426q100 0 100 86z" />
    <glyph glyph-name=".null" horiz-adv-x="0" 
 />
    <glyph glyph-name="nonmarkingreturn" horiz-adv-x="682" 
 />
    <glyph glyph-name="space" unicode=" " horiz-adv-x="313" 
 />
    <glyph glyph-name="exclam" unicode="!" horiz-adv-x="354" 
d="M297 1389l-55 -1020h-133l-56 1020h244zM289 176v-113q0 -61 -43 -61h-144q-41 0 -41 61v113q0 60 41 60h144q43 0 43 -60z" />
    <glyph glyph-name="quotedbl" unicode="&#x22;" horiz-adv-x="575" 
d="M520 1389l-18 -261q-9 -47 -43 -47h-56q-32 0 -41 47l-20 261q0 61 43 61h94q41 0 41 -61zM231 1389l-20 -261q-4 -22 -15.5 -34.5t-25.5 -12.5h-57q-29 0 -41 47l-19 261q0 61 41 61h94q43 0 43 -61z" />
    <glyph glyph-name="numbersign" unicode="#" horiz-adv-x="997" 
d="M571 485l80 426h-215l-78 -426h213zM600 0h-121l68 365h-211l-72 -365h-119l70 365h-190v120h211l77 422h-204v123h229l61 359h127l-67 -359h213l69 359h121l-65 -359h174v-123h-197l-84 -422h199v-120h-217z" />
    <glyph glyph-name="dollar" unicode="$" horiz-adv-x="747" 
d="M698 813v-467q0 -94 -46.5 -143t-129.5 -49h-108v-154h-74v154h-297v348h297v375h-152q-133 0 -133 186q0 70 39.5 132t93.5 62h152v132h74v-132h176v-129h-176v-120h123q161 0 161 -195zM530 686q0 168 -116 186v-358q116 38 116 172zM262 1063q0 -55 57 -55h21v120h-21
q-57 0 -57 -65z" />
    <glyph glyph-name="percent" unicode="%" horiz-adv-x="1157" 
d="M938 1389h125l-844 -1389h-123zM1106 418v-246q0 -172 -115 -172h-250q-112 0 -112 172v246q0 172 112 172h250q115 0 115 -172zM879 326v92q0 82 -62 82h-76q-61 0 -61 -82v-92q0 -82 61 -82h76q62 0 62 82zM526 1219v-248q0 -170 -112 -170h-254q-111 0 -111 170v248
q0 170 111 170h254q112 0 112 -170zM299 1128v91q0 79 -59 79h-80q-62 0 -62 -79v-91q0 -79 62 -79h80q59 0 59 79z" />
    <glyph glyph-name="ampersand" unicode="&#x26;" horiz-adv-x="835" 
d="M807 37l-94 -94l-97 131l-28 -25q-36 -33 -74 -46t-100 -13h-230q-74 0 -100.5 33t-26.5 122v91q0 76 10.5 106.5t45.5 65.5l153 143l-139 194q-40 54 -53 90t-13 91v231q0 101 14 149t46.5 65.5t101.5 17.5h309q68 0 101 -18t47 -66t14 -148v-229q0 -109 -17 -158
t-73 -98l-158 -140l183 -253l102 100l76 -115l-96 -94zM532 184l-184 254l-100 -84q-25 -25 -25 -80v-73q0 -39 11.5 -54.5t41.5 -15.5h123q69 0 111 37zM367 649l108 99q21 21 29 44.5t8 63.5v45q0 48 -9 64t-36 16h-178q-30 0 -38.5 -15.5t-8.5 -64.5v-27q0 -57 24 -90z
" />
    <glyph glyph-name="quotesingle" unicode="'" horiz-adv-x="274" 
d="M223 1389l-18 -261q-9 -47 -45 -47h-51q-34 0 -46 47l-16 261q0 61 41 61h94q41 0 41 -61z" />
    <glyph glyph-name="parenleft" unicode="(" horiz-adv-x="491" 
d="M461 -348v-340h-285q-119 0 -119 172v1966q0 75 36 123.5t83 48.5h285v-90h-111q-61 0 -61 -82v-1716q0 -82 61 -82h111z" />
    <glyph glyph-name="parenright" unicode=")" horiz-adv-x="491" 
d="M430 1450v-1968q0 -172 -111 -172h-290v340h114q60 0 60 82v1718q0 82 -60 82h-114v90h290q111 0 111 -172z" />
    <glyph glyph-name="asterisk" unicode="*" horiz-adv-x="839" 
d="M803 770q-167 -71 -176 -92q-18 -36 -37 -219q-146 102 -170 102t-170 -102q-18 174 -35 219q-13 19 -178 92q8 11 30.5 37.5t36 44t30 40t24.5 40.5t8 31q0 1 -5.5 21t-18.5 70.5t-27 106.5q100 -14 151 -14q19 0 37.5 11t35.5 34t28 41.5t28.5 50.5t24.5 45l88 -153
q17 -31 74 -31l143 16q-47 -172 -47 -198q0 -19 14.5 -47t28.5 -46.5t44.5 -54.5t37.5 -45z" />
    <glyph glyph-name="plus" unicode="+" horiz-adv-x="610" 
d="M594 690v-90h-115q-61 0 -61 -82v-170h-228v170q0 82 -61 82h-113v90h113q61 0 61 80v170h228v-170q0 -80 61 -80h115z" />
    <glyph glyph-name="comma" unicode="," horiz-adv-x="274" 
d="M223 176l-18 -264q-9 -43 -45 -43h-51q-34 0 -46 43l-16 264q0 60 41 60h94q41 0 41 -60z" />
    <glyph glyph-name="hyphen" unicode="-" horiz-adv-x="503" 
d="M444 719v-90h-387v90h387z" />
    <glyph glyph-name="period" unicode="." horiz-adv-x="339" 
d="M281 176v-113q0 -61 -41 -61h-144q-41 0 -41 61v113q0 60 41 60h144q41 0 41 -60z" />
    <glyph glyph-name="slash" unicode="/" horiz-adv-x="798" 
d="M647 1389h123l-618 -1389h-121z" />
    <glyph glyph-name="zero" unicode="0" horiz-adv-x="804" 
d="M748 1198v-1008q0 -83 -44 -136.5t-92 -53.5h-424q-58 0 -95.5 51.5t-37.5 138.5v1008q0 96 40 143.5t93 47.5h424q136 0 136 -191zM580 444v754q0 62 -41 62h-177q-40 0 -40 -62v-754q0 -63 40 -63h177q41 0 41 63z" />
    <glyph glyph-name="one" unicode="1" horiz-adv-x="460" 
d="M401 1198v-1198h-264v1198q0 62 -43 62h-67v129h241q133 0 133 -191z" />
    <glyph glyph-name="two" unicode="2" horiz-adv-x="727" 
d="M49 0v895q0 217 201 217h201q36 0 36 70q0 78 -36 78h-345v129h420q133 0 133 -207q0 -199 -133 -199h-57q-152 0 -152 -176v-426h355v-381h-623z" />
    <glyph glyph-name="three" unicode="3" horiz-adv-x="638" 
d="M451 0h-414v381h334q45 0 45 63v250q0 62 -45 62h-187v131h187q45 0 45 59v252q0 62 -45 62h-334v129h414q78 0 104.5 -39.5t26.5 -151.5v-1008q0 -190 -131 -190z" />
    <glyph glyph-name="four" unicode="4" horiz-adv-x="837" 
d="M825 461h-133q-43 0 -43 -60v-401h-264v401q0 60 -45 60h-305v928h123v-736q0 -61 43 -61h139q45 0 45 61v504h264v-504q0 -61 43 -61h133v-131z" />
    <glyph glyph-name="five" unicode="5" horiz-adv-x="757" 
d="M709 922v-732q0 -190 -138 -190h-520v633h238q215 0 215 174q0 176 -150 176h-270l31 406h565v-129h-363l-10 -148h264q138 0 138 -190z" />
    <glyph glyph-name="six" unicode="6" horiz-adv-x="778" 
d="M600 0h-410q-57 0 -95 56t-38 134v1008q0 191 133 191h433v-129h-258q-41 0 -41 -62v-154q0 -61 41 -61h235q133 0 133 -192v-601q0 -190 -133 -190zM610 444v347q0 61 -43 61h-202q-41 0 -41 -61v-347q0 -63 41 -63h202q43 0 43 63z" />
    <glyph glyph-name="seven" unicode="7" horiz-adv-x="665" 
d="M647 1210l-338 -1210h-258q26 78 63 195t92 292t99 312q76 241 76 377q0 84 -43 84h-305v129h614v-179z" />
    <glyph glyph-name="eight" unicode="8" horiz-adv-x="837" 
d="M649 0h-461q-56 0 -93.5 60t-37.5 130v1008q0 85 38 138t93 53h461q131 0 131 -191v-1008q0 -79 -38.5 -134.5t-92.5 -55.5zM612 946v252q0 62 -43 62h-204q-41 0 -41 -62v-252q0 -59 41 -59h204q43 0 43 59zM612 444v250q0 62 -43 62h-204q-41 0 -41 -62v-250
q0 -63 41 -63h204q43 0 43 63z" />
    <glyph glyph-name="nine" unicode="9" horiz-adv-x="800" 
d="M610 0h-532v381h358q43 0 43 63v205q0 62 -43 62h-252q-58 0 -94.5 47.5t-36.5 144.5v295q0 74 37.5 132.5t93.5 58.5h426q57 0 95 -52.5t38 -138.5v-1008q0 -86 -41.5 -138t-91.5 -52zM479 903v295q0 62 -43 62h-221q-39 0 -39 -62v-295q0 -63 41 -63h219q43 0 43 63z
" />
    <glyph glyph-name="colon" unicode=":" horiz-adv-x="342" 
d="M283 176v-113q0 -61 -41 -61h-144q-41 0 -41 61v113q0 60 41 60h144q41 0 41 -60zM283 842v-109q0 -61 -41 -61h-144q-41 0 -41 61v109q0 63 41 63h144q41 0 41 -63z" />
    <glyph glyph-name="semicolon" unicode=";" horiz-adv-x="309" 
d="M242 176l-19 -264q-9 -43 -43 -43h-53q-34 0 -43 43l-21 264q0 60 43 60h95q41 0 41 -60zM268 842v-109q0 -61 -41 -61h-143q-43 0 -43 61v109q0 63 43 63h143q41 0 41 -63z" />
    <glyph glyph-name="less" unicode="&#x3c;" horiz-adv-x="468" 
d="M449 520v-100l-429 203v92l429 203v-107l-291 -104q-31 -14 -31 -25v-27q0 -16 31 -26z" />
    <glyph glyph-name="equal" unicode="=" horiz-adv-x="579" 
d="M543 848v-90h-506v90h506zM543 551v-90h-506v90h506z" />
    <glyph glyph-name="greater" unicode="&#x3e;" horiz-adv-x="495" 
d="M31 420v100l293 109q28 9 28 26v27q0 13 -28 25l-293 104v107l430 -203v-92z" />
    <glyph glyph-name="question" unicode="?" horiz-adv-x="722" 
d="M700 1219v-273q0 -170 -149 -170h-154q-90 0 -90 -112v-244h-164v274q0 172 117 172h154q57 0 57 80v273q0 79 -57 79h-391v91h528q149 0 149 -170zM336 176v-113q0 -61 -43 -61h-141q-41 0 -41 61v113q0 60 41 60h141q43 0 43 -60z" />
    <glyph glyph-name="at" unicode="@" horiz-adv-x="1112" 
d="M662 817h86v-254q0 -88 77 -88q49 0 85 55t36 150q0 202 -93 317t-296 115q-175 0 -287 -119.5t-112 -337.5q0 -220 94.5 -340.5t261.5 -146.5l-12 -117q-223 30 -342 197t-119 409q0 131 43 240.5t115 180.5t164.5 110t193.5 39q243 0 373.5 -134t130.5 -405
q0 -36 -4.5 -71.5t-19.5 -80.5t-40 -78t-70.5 -56t-105.5 -23q-115 0 -153 84q-65 -43 -129 -43q-82 0 -137.5 51.5t-55.5 146.5q0 97 51 149t140 52q72 0 116 -33zM653 565v119q-38 41 -100 41q-111 0 -111 -107q0 -102 105 -102q66 0 106 49z" />
    <glyph glyph-name="A" unicode="A" horiz-adv-x="851" 
d="M266 0h-227l162 1389h452l162 -1389h-305l-29 346q-3 39 -30 39h-125q-30 0 -33 -35zM350 954l-41 -446q0 -33 31 -33h92q35 0 35 33l-39 446q-6 64 -41 64q-31 0 -37 -64z" />
    <glyph glyph-name="B" unicode="B" horiz-adv-x="868" 
d="M827 672v-482q0 -67 -42 -128.5t-91 -61.5h-637v1389h621q129 0 129 -191v-188q0 -66 -26 -105t-81 -63q127 -31 127 -170zM541 967v231q-1 30 -12 46t-27 16h-156q-41 0 -41 -62v-231q0 -62 41 -62h156q39 0 39 62zM559 444v269q0 63 -41 63h-172q-41 0 -41 -63v-269
q0 -63 41 -63h172q41 0 41 63z" />
    <glyph glyph-name="C" unicode="C" horiz-adv-x="755" 
d="M719 381v-381h-529q-133 0 -133 190v1008q0 89 41 140t92 51h510v-129h-335q-41 0 -41 -62v-754q0 -63 41 -63h354z" />
    <glyph glyph-name="D" unicode="D" horiz-adv-x="903" 
d="M846 1102v-813q0 -289 -230 -289h-559v1389h559q230 0 230 -287zM582 475v690q0 95 -74 95h-143q-41 0 -41 -62v-754q0 -63 41 -63h143q74 0 74 94z" />
    <glyph glyph-name="E" unicode="E" horiz-adv-x="770" 
d="M727 381v-381h-534q-136 0 -136 190v1008q0 191 136 191h534v-129h-358q-43 0 -43 -62v-231q0 -62 43 -62h241v-129h-241q-43 0 -43 -63v-269q0 -63 43 -63h358z" />
    <glyph glyph-name="F" unicode="F" horiz-adv-x="727" 
d="M721 1389v-129h-354q-41 0 -41 -62v-350q0 -60 41 -60h241v-129h-241q-41 0 -41 -61v-598h-269v1198q0 191 136 191h528z" />
    <glyph glyph-name="G" unicode="G" horiz-adv-x="860" 
d="M815 0h-625q-58 0 -95.5 54t-37.5 136v1008q0 191 133 191h603v-129h-428q-41 0 -41 -62v-754q0 -63 41 -63h153q45 0 45 63v316h252v-760z" />
    <glyph glyph-name="H" unicode="H" horiz-adv-x="919" 
d="M860 0h-268v694q0 62 -41 62h-182q-43 0 -43 -62v-694h-269v1389h269v-443q0 -59 43 -59h182q41 0 41 59v443h268v-1389z" />
    <glyph glyph-name="I" unicode="I" horiz-adv-x="385" 
d="M324 1389v-1389h-267v1389h267z" />
    <glyph glyph-name="J" unicode="J" horiz-adv-x="606" 
d="M551 1389v-1586q0 -491 -371 -491h-160v633h48q219 0 219 315v1129h264z" />
    <glyph glyph-name="K" unicode="K" horiz-adv-x="950" 
d="M537 627l399 -627h-254l-168 293q-47 82 -81 117.5t-68 35.5q-48 0 -48 -149v-297h-266v1389h266v-281q0 -154 43 -154q27 0 50 22.5t53 78.5l178 334h98l-235 -412q-31 -50 -31 -148q0 -65 13.5 -106t50.5 -96z" />
    <glyph glyph-name="L" unicode="L" horiz-adv-x="675" 
d="M643 633v-633h-457q-133 0 -133 190v1199h269v-637q0 -119 116 -119h205z" />
    <glyph glyph-name="M" unicode="M" horiz-adv-x="1429" 
d="M1372 0h-266v444q0 72 -37 72q-26 0 -43 -45l-162 -471h-299l-164 471q-15 45 -45 45q-32 0 -32 -72v-444h-267v1389h322l340 -975q9 -45 33 -45q20 0 36 45l340 975h244v-1389z" />
    <glyph glyph-name="N" unicode="N" horiz-adv-x="1081" 
d="M1024 0h-283l-340 729q-21 41 -43 41q-32 0 -32 -76v-694h-269v1389h289l336 -730q14 -38 43 -38q31 0 31 73v695h268v-1389z" />
    <glyph glyph-name="O" unicode="O" horiz-adv-x="897" 
d="M840 1198v-1008q0 -89 -40.5 -139.5t-90.5 -50.5h-519q-59 0 -96 50.5t-37 139.5v1008q0 83 39 137t94 54h519q67 0 99 -44.5t32 -146.5zM616 444v754q0 62 -43 62h-172q-43 0 -43 -62v-754q0 -63 43 -63h172q43 0 43 63z" />
    <glyph glyph-name="P" unicode="P" horiz-adv-x="866" 
d="M846 1198v-381q0 -74 -39.5 -131t-93.5 -57h-348q-41 0 -41 -64v-565h-267v1389h656q49 0 91 -57.5t42 -133.5zM582 817v381q0 62 -41 62h-176q-41 0 -41 -62v-381q0 -61 41 -61h176q41 0 41 61z" />
    <glyph glyph-name="Q" unicode="Q" horiz-adv-x="876" 
d="M938 -211v-477h-332q-221 0 -221 252v375q0 61 -45 61h-170q-55 0 -95 56.5t-40 133.5v1008q0 81 39.5 136t95.5 55h522q133 0 133 -191v-1008q0 -81 -24.5 -135.5t-67.5 -54.5h-86q-96 0 -96 -96q0 -115 168 -115h219zM559 233v965q0 62 -43 62h-176q-41 0 -41 -62v-965
q0 -61 41 -61h176q43 0 43 61z" />
    <glyph glyph-name="R" unicode="R" horiz-adv-x="892" 
d="M846 0h-264v600q0 156 -113 156h-104q-41 0 -41 -62v-694h-267v1389h625q133 0 133 -191v-168q0 -91 -27 -134t-94 -69q75 -21 113.5 -80t38.5 -137v-610zM549 946v252q0 62 -41 62h-143q-41 0 -41 -62v-252q0 -59 41 -59h143q41 0 41 59z" />
    <glyph glyph-name="S" unicode="S" horiz-adv-x="743" 
d="M698 946v-756q0 -93 -45.5 -141.5t-124.5 -48.5h-485v633h268q219 0 219 184q0 193 -153 193h-189q-133 0 -133 186q0 70 39 131.5t94 61.5h402v-129h-271q-57 0 -57 -64q0 -57 57 -57h218q161 0 161 -193z" />
    <glyph glyph-name="T" unicode="T" horiz-adv-x="692" 
d="M479 0h-268v1198q0 62 -37 62h-151v129h643v-129h-146q-41 0 -41 -62v-1198z" />
    <glyph glyph-name="U" unicode="U" horiz-adv-x="845" 
d="M604 1389h184v-1199q0 -77 -42 -133.5t-91 -56.5h-465q-55 0 -94 60t-39 130v1199h289v-945q0 -63 41 -63h176q41 0 41 63v945z" />
    <glyph glyph-name="V" unicode="V" horiz-adv-x="851" 
d="M590 1389h225l-162 -1389h-452l-162 1389h301l82 -953q3 -65 45 -65q31 0 37 65z" />
    <glyph glyph-name="W" unicode="W" horiz-adv-x="1517" 
d="M1255 1389h213l-161 -1389h-435l-84 702q-6 68 -38 68q-35 0 -41 -68l-80 -702h-422l-160 1389h295l82 -953q3 -65 43 -65q33 0 39 65l84 953h420l80 -953q3 -65 40 -65q33 0 39 65z" />
    <glyph glyph-name="X" unicode="X" horiz-adv-x="862" 
d="M653 678l154 -678h-244l-80 336q-12 53 -37 53q-26 0 -38 -53l-78 -336h-279l156 678v35l-156 676h279l78 -336q12 -54 38 -54q25 0 37 54l80 336h244l-154 -676v-35z" />
    <glyph glyph-name="Y" unicode="Y" horiz-adv-x="880" 
d="M612 1389h246l-219 -1618q-62 -459 -397 -459h-187v633h74q129 0 129 106q0 26 -3 55t-8 64.5t-7 56.5l-185 1162h310l86 -953q6 -65 36 -65q37 0 43 65z" />
    <glyph glyph-name="Z" unicode="Z" horiz-adv-x="718" 
d="M659 401v-401h-612v422l340 717q10 33 10 49q0 47 -43 47h-293v154h588v-170l-332 -719q-10 -20 -10 -49q0 -50 47 -50h305z" />
    <glyph glyph-name="bracketleft" unicode="[" horiz-adv-x="491" 
d="M461 -348v-340h-285q-119 0 -119 172v1966q0 75 36 123.5t83 48.5h285v-90h-111q-61 0 -61 -82v-1716q0 -82 61 -82h111z" />
    <glyph glyph-name="backslash" unicode="\" horiz-adv-x="749" 
d="M4 1389h125l616 -1389h-122z" />
    <glyph glyph-name="bracketright" unicode="]" horiz-adv-x="491" 
d="M430 1450v-1968q0 -172 -111 -172h-290v340h114q60 0 60 82v1718q0 82 -60 82h-114v90h290q111 0 111 -172z" />
    <glyph glyph-name="asciicircum" unicode="^" horiz-adv-x="616" 
d="M98 543h-63l145 846h252l148 -846h-209l-78 442q-9 74 -57 74q-46 0 -58 -74z" />
    <glyph glyph-name="underscore" unicode="_" horiz-adv-x="890" 
d="M907 -25v-88h-925v88h925z" />
    <glyph glyph-name="grave" unicode="`" horiz-adv-x="360" 
d="M98 956l-176 269h160l147 -269h-131z" />
    <glyph glyph-name="a" unicode="a" horiz-adv-x="675" 
d="M616 678v-678h-397q-180 0 -180 236v120q0 236 180 236h262v86q0 78 -61 78h-307v90h368q135 0 135 -168zM481 326v94q0 82 -59 82h-174q-62 0 -62 -82v-94q0 -82 62 -82h174q59 0 59 82z" />
    <glyph glyph-name="b" unicode="b" horiz-adv-x="659" 
d="M637 678v-506q0 -172 -119 -172h-461v1477h232v-549q0 -82 57 -82h172q119 0 119 -168zM565 422v256q0 78 -61 78h-158q-57 0 -57 -78v-256q0 -82 57 -82h158q61 0 61 82z" />
    <glyph glyph-name="c" unicode="c" horiz-adv-x="602" 
d="M565 340v-340h-395q-115 0 -115 172v506q0 64 37.5 116t77.5 52h389v-90h-219q-59 0 -59 -78v-256q0 -82 59 -82h225z" />
    <glyph glyph-name="d" unicode="d" horiz-adv-x="663" 
d="M604 1350v-1350h-465q-44 0 -78 53t-34 119v506q0 68 37 118t75 50h174q60 0 60 82v422h231zM373 422v256q0 78 -60 78h-127q-57 0 -57 -78v-256q0 -82 57 -82h127q60 0 60 82z" />
    <glyph glyph-name="e" unicode="e" horiz-adv-x="708" 
d="M172 846h416q69 0 69 -146q0 -53 -26 -90l-105 -139q-30 -38 -30 -84q0 -47 71 -47h97v-340h-492q-115 0 -115 172v506q0 85 27.5 126.5t87.5 41.5zM498 756h-156q-59 0 -59 -78v-256q0 -90 36 -90q20 0 46 37l174 252q22 28 22 67q0 68 -63 68z" />
    <glyph glyph-name="f" unicode="f" horiz-adv-x="471" 
d="M459 936v-90h-113q-63 0 -63 -78v-768h-226v1307q0 170 115 170h287v-91h-113q-63 0 -63 -79v-289q0 -82 63 -82h113z" />
    <glyph glyph-name="g" unicode="g" horiz-adv-x="684" 
d="M623 846v-1362q0 -76 -34.5 -124t-78.5 -48h-397v303h227q156 0 156 192q0 193 -142 193h-194q-38 0 -74.5 56t-36.5 116v506q0 66 31 117t80 51h463zM397 422v256q0 78 -61 78h-158q-63 0 -63 -78v-256q0 -82 63 -82h158q61 0 61 82z" />
    <glyph glyph-name="h" unicode="h" horiz-adv-x="657" 
d="M610 678v-678h-69v678q0 78 -60 78h-131q-61 0 -61 -78v-678h-232v1477h232v-549q0 -82 61 -82h150q110 0 110 -168z" />
    <glyph glyph-name="i" unicode="i" horiz-adv-x="342" 
d="M283 846v-846h-226v846h226zM283 1327v-108q0 -62 -41 -62h-144q-41 0 -41 62v108q0 62 41 62h144q41 0 41 -62z" />
    <glyph glyph-name="j" unicode="j" horiz-adv-x="391" 
d="M113 846h227v-1254q0 -280 -268 -280h-224v303h89q176 0 176 256v975zM342 1327v-108q0 -62 -41 -62h-141q-43 0 -43 62v108q0 62 43 62h141q41 0 41 -62z" />
    <glyph glyph-name="k" unicode="k" horiz-adv-x="731" 
d="M446 389l285 -389h-182l-156 219q-21 30 -35 41.5t-34 11.5q-37 0 -37 -92v-180h-230v1477h230v-799q0 -96 32 -96q21 0 36 15.5t40 55.5l125 193h72l-172 -250q-19 -38 -19 -84q0 -61 45 -123z" />
    <glyph glyph-name="l" unicode="l" horiz-adv-x="346" 
d="M283 1477v-1477h-226v1477h226z" />
    <glyph glyph-name="m" unicode="m" horiz-adv-x="1009" 
d="M952 678v-678h-104v678q0 78 -60 78h-108q-64 0 -64 -78v-678h-100v678q0 78 -61 78h-109q-63 0 -63 -78v-678h-226v846h781q114 0 114 -168z" />
    <glyph glyph-name="n" unicode="n" horiz-adv-x="690" 
d="M633 678v-678h-98v678q0 78 -64 78h-129q-59 0 -59 -78v-678h-226v846h461q42 0 78.5 -51.5t36.5 -116.5z" />
    <glyph glyph-name="o" unicode="o" 
d="M631 678v-506q0 -72 -34 -122t-81 -50h-346q-35 0 -75 57t-40 115v506q0 65 36.5 116.5t78.5 51.5h346q47 0 81 -48t34 -120zM403 422v256q0 78 -63 78h-156q-61 0 -61 -78v-256q0 -82 61 -82h156q63 0 63 82z" />
    <glyph glyph-name="p" unicode="p" horiz-adv-x="681" 
d="M633 678v-506q0 -65 -36.5 -118.5t-78.5 -53.5h-176q-59 0 -59 -80v-608h-226v1534h461q48 0 81.5 -48.5t33.5 -119.5zM565 422v256q0 78 -61 78h-162q-59 0 -59 -78v-256q0 -82 59 -82h162q61 0 61 82z" />
    <glyph glyph-name="q" unicode="q" horiz-adv-x="655" 
d="M743 -385v-303h-270q-113 0 -113 172v434q0 82 -61 82h-158q-44 0 -78 48t-34 124v506q0 73 36.5 120.5t75.5 47.5h451v-1170q0 -61 80 -61h71zM360 422v256q0 78 -61 78h-143q-58 0 -58 -78v-256q0 -82 58 -82h143q61 0 61 82z" />
    <glyph glyph-name="r" unicode="r" horiz-adv-x="471" 
d="M455 846v-90h-115q-59 0 -59 -78v-678h-226v678q0 77 33.5 122.5t81.5 45.5h285z" />
    <glyph glyph-name="s" unicode="s" 
d="M647 580v-459q0 -53 -33 -87t-88 -34h-483v385h299q150 0 150 115q0 112 -140 112h-172q-123 0 -123 115q0 119 123 119h365v-76h-246q-53 0 -53 -43q0 -35 53 -35h199q149 0 149 -112z" />
    <glyph glyph-name="t" unicode="t" horiz-adv-x="483" 
d="M457 340v-340h-285q-48 0 -81.5 46.5t-33.5 125.5v1217h226v-371q0 -82 59 -82h115v-90h-115q-59 0 -59 -78v-346q0 -82 59 -82h115z" />
    <glyph glyph-name="u" unicode="u" horiz-adv-x="690" 
d="M633 846v-674q0 -172 -115 -172h-346q-44 0 -79.5 52.5t-35.5 119.5v674h226v-424q0 -82 63 -82h125q64 0 64 82v424h98z" />
    <glyph glyph-name="v" unicode="v" horiz-adv-x="606" 
d="M514 846h66l-148 -846h-252l-145 846h207l80 -443q9 -73 57 -73q42 0 57 73z" />
    <glyph glyph-name="w" unicode="w" horiz-adv-x="1140" 
d="M1049 846h65l-147 -846h-250l-80 444q-12 72 -57 72q-43 0 -58 -72l-78 -444h-276l-145 846h229l80 -443q12 -73 57 -73t57 73l80 443h250l80 -443q6 -38 18.5 -55.5t36.5 -17.5q48 0 60 73z" />
    <glyph glyph-name="x" unicode="x" horiz-adv-x="616" 
d="M397 492l197 -492h-191l-110 246q-18 36 -26.5 47.5t-18.5 11.5q-15 0 -47 -76l-107 -229h-74l170 365q11 17 11 38q0 24 -11 43l-170 400h193l51 -117q23 -51 42.5 -71.5t43.5 -20.5q8 0 27 22t39 60l63 127h49l-98 -187q-41 -77 -41 -122q0 -26 8 -45z" />
    <glyph glyph-name="y" unicode="y" horiz-adv-x="698" 
d="M467 846h180l-164 -1196q-47 -338 -293 -338h-137v303h56q92 0 92 96q0 33 -5 91.5t-6 84.5l-137 959h228l65 -701q3 -49 25 -49q29 0 32 49z" />
    <glyph glyph-name="z" unicode="z" horiz-adv-x="581" 
d="M528 358v-358h-475v387l185 229q26 29 26 72q0 53 -71 53h-140v105h428v-135l-184 -230q-25 -31 -25 -69q0 -54 66 -54h190z" />
    <glyph glyph-name="braceleft" unicode="{" horiz-adv-x="491" 
d="M461 -348v-340h-285q-119 0 -119 172v1966q0 75 36 123.5t83 48.5h285v-90h-111q-61 0 -61 -82v-1716q0 -82 61 -82h111z" />
    <glyph glyph-name="bar" unicode="|" horiz-adv-x="491" 
d="M360 1477v-2165h-231v2165h231z" />
    <glyph glyph-name="braceright" unicode="}" horiz-adv-x="491" 
d="M430 1450v-1968q0 -172 -111 -172h-290v340h114q60 0 60 82v1718q0 82 -60 82h-114v90h290q111 0 111 -172z" />
    <glyph glyph-name="uni00A0" unicode="&#xa0;" horiz-adv-x="1155" 
 />
    <glyph glyph-name="exclamdown" unicode="&#xa1;" horiz-adv-x="354" 
d="M53 0l56 1020h133l55 -1020h-244zM61 1212v113q0 61 41 61h144q43 0 43 -61v-113q0 -57 -43 -57h-144q-41 0 -41 57z" />
    <glyph glyph-name="sterling" unicode="&#xa3;" horiz-adv-x="755" 
d="M670 1087v-90h-258v-616h307v-381h-680v381h106v616h-79v90h79v111q0 83 42 137t92 54h421v-129h-247q-41 0 -41 -62v-111h258z" />
    <glyph glyph-name="dieresis" unicode="&#xa8;" horiz-adv-x="776" 
d="M668 1163v-112q0 -62 -41 -62h-144q-41 0 -41 62v112q0 60 41 60h144q41 0 41 -60zM334 1163v-112q0 -62 -41 -62h-143q-41 0 -41 62v112q0 60 41 60h143q41 0 41 -60z" />
    <glyph glyph-name="copyright" unicode="&#xa9;" horiz-adv-x="1511" 
d="M27 694q0 200 97.5 368t265.5 265.5t366 97.5q200 0 368 -97.5t265.5 -265.5t97.5 -368q0 -197 -97.5 -364t-266 -265t-367.5 -98q-198 0 -366 98t-265.5 265.5t-97.5 363.5zM115 692q0 -176 85.5 -324.5t233.5 -234.5t324 -86q177 0 326.5 86t236 234.5t86.5 324.5
q0 174 -86.5 324.5t-236.5 240t-326 89.5q-131 0 -251 -53t-205.5 -141.5t-136 -209t-50.5 -250.5zM991 621v-342h-395q-115 0 -115 172v505q0 170 115 170h391v-90h-219q-59 0 -59 -80v-256q0 -79 59 -79h223z" />
    <glyph glyph-name="guillemotleft" unicode="&#xab;" horiz-adv-x="565" 
d="M528 477v-100l-233 201v92l233 202v-104l-131 -106q-12 -9 -12 -25v-27q0 -15 12 -24zM270 477v-100l-233 201v92l233 202v-104l-129 -106q-16 -8 -16 -25v-27q0 -16 16 -24z" />
    <glyph glyph-name="registered" unicode="&#xae;" horiz-adv-x="1511" 
d="M27 694q0 200 97.5 368t265.5 265.5t366 97.5q200 0 368 -97.5t265.5 -265.5t97.5 -368q0 -197 -97.5 -364t-266 -265t-367.5 -98q-198 0 -366 98t-265.5 265.5t-97.5 363.5zM115 692q0 -176 85.5 -324.5t233.5 -234.5t324 -86q177 0 326.5 86t236 234.5t86.5 324.5
q0 174 -86.5 324.5t-236.5 240t-326 89.5q-131 0 -251 -53t-205.5 -141.5t-136 -209t-50.5 -250.5zM1006 289h-162v366q0 95 -70 95h-63q-25 0 -25 -37v-424h-164v848h381q82 0 82 -117v-102q0 -86 -74 -127q95 -39 95 -129v-373zM825 864v156q0 37 -26 37h-88
q-25 0 -25 -37v-156q0 -35 25 -35h88q26 0 26 35z" />
    <glyph glyph-name="degree" unicode="&#xb0;" horiz-adv-x="602" 
d="M539 1219v-248q0 -170 -113 -170h-252q-113 0 -113 170v248q0 170 113 170h252q113 0 113 -170zM311 1128v91q0 79 -59 79h-78q-61 0 -61 -79v-91q0 -79 61 -79h78q59 0 59 79z" />
    <glyph glyph-name="acute" unicode="&#xb4;" horiz-adv-x="358" 
d="M403 1225l-174 -269h-131l148 269h157z" />
    <glyph glyph-name="cedilla" unicode="&#xb8;" horiz-adv-x="417" 
d="M299 -162l-20 -264q-9 -45 -43 -45h-54q-31 0 -43 45l-18 264q0 60 41 60h96q41 0 41 -60z" />
    <glyph glyph-name="guillemotright" unicode="&#xbb;" horiz-adv-x="575" 
d="M41 768v104l233 -204v-95l-233 -196v100l131 109q12 12 12 24v27q0 16 -12 25zM301 768v104l234 -204v-95l-234 -196v100l129 109q14 11 14 24v27q0 17 -14 25z" />
    <glyph glyph-name="questiondown" unicode="&#xbf;" horiz-adv-x="722" 
d="M23 172v272q0 168 151 168h154q90 0 90 113v244h164v-275q0 -172 -115 -172h-156q-59 0 -59 -78v-272q0 -82 59 -82h389v-90h-526q-151 0 -151 172zM387 1212v113q0 61 43 61h141q41 0 41 -61v-113q0 -57 -41 -57h-141q-43 0 -43 57z" />
    <glyph glyph-name="Agrave" unicode="&#xc0;" horiz-adv-x="851" 
d="M266 0h-227l162 1389h452l162 -1389h-305l-29 346q-3 39 -30 39h-125q-30 0 -33 -35zM350 954l-41 -446q0 -33 31 -33h92q35 0 35 33l-39 446q-6 64 -41 64q-31 0 -37 -64zM440 1499l-176 268h160l147 -268h-131z" />
    <glyph glyph-name="Aacute" unicode="&#xc1;" horiz-adv-x="851" 
d="M266 0h-227l162 1389h452l162 -1389h-305l-29 346q-3 39 -30 39h-125q-30 0 -33 -35zM350 954l-41 -446q0 -33 31 -33h92q35 0 35 33l-39 446q-6 64 -41 64q-31 0 -37 -64zM569 1767l-174 -268h-131l148 268h157z" />
    <glyph glyph-name="Acircumflex" unicode="&#xc2;" horiz-adv-x="851" 
d="M266 0h-227l162 1389h452l162 -1389h-305l-29 346q-3 39 -30 39h-125q-30 0 -33 -35zM350 954l-41 -446q0 -33 31 -33h92q35 0 35 33l-39 446q-6 64 -41 64q-31 0 -37 -64zM537 1520l-113 149l-113 -149h-143l186 247h138l190 -247h-145z" />
    <glyph glyph-name="Atilde" unicode="&#xc3;" horiz-adv-x="851" 
d="M266 0h-227l162 1389h452l162 -1389h-305l-29 346q-3 39 -30 39h-125q-30 0 -33 -35zM350 954l-41 -446q0 -33 31 -33h92q35 0 35 33l-39 446q-6 64 -41 64q-31 0 -37 -64zM633 1714l72 -82q-43 -110 -168 -110q-44 0 -105.5 33.5t-93.5 33.5q-60 0 -113 -80l-78 70
q61 121 170 121q62 0 118.5 -31t92.5 -31q68 0 105 76z" />
    <glyph glyph-name="Adieresis" unicode="&#xc4;" horiz-adv-x="851" 
d="M266 0h-227l162 1389h452l162 -1389h-305l-29 346q-3 39 -30 39h-125q-30 0 -33 -35zM350 954l-41 -446q0 -33 31 -33h92q35 0 35 33l-39 446q-6 64 -41 64q-31 0 -37 -64zM709 1706v-113q0 -61 -41 -61h-144q-41 0 -41 61v113q0 59 41 59h144q41 0 41 -59zM375 1706
v-113q0 -61 -41 -61h-144q-40 0 -40 61v113q0 59 40 59h144q41 0 41 -59z" />
    <glyph glyph-name="Aring" unicode="&#xc5;" horiz-adv-x="851" 
d="M266 0h-227l162 1389h452l162 -1389h-305l-29 346q-3 39 -30 39h-125q-30 0 -33 -35zM350 954l-41 -446q0 -33 31 -33h92q35 0 35 33l-39 446q-6 64 -41 64q-31 0 -37 -64zM588 1710v-213q0 -25 -17 -42t-43 -17h-184q-26 0 -42.5 18t-16.5 41v213q0 26 17 41.5t42 15.5
h184q24 0 42 -16t18 -41zM481 1542v129q0 12 -10 19.5t-25 7.5h-81q-33 0 -33 -27v-129q0 -29 33 -29h81q15 0 25 8t10 21z" />
    <glyph glyph-name="AE" unicode="&#xc6;" horiz-adv-x="1126" 
d="M1079 381v-381h-571v340q0 39 -31 45h-121q-31 0 -34 -35l-60 -350h-227l287 1389h757v-129h-358q-41 0 -41 -62v-231q0 -62 41 -62h242v-129h-242q-41 0 -41 -63v-269q0 -63 41 -63h358zM428 952l-74 -452q0 -26 27 -29h90q36 0 39 33v448q0 64 -35 64t-47 -64z" />
    <glyph glyph-name="Ccedilla" unicode="&#xc7;" horiz-adv-x="755" 
d="M719 381v-381h-529q-133 0 -133 190v1008q0 89 41 140t92 51h510v-129h-335q-41 0 -41 -62v-754q0 -63 41 -63h354zM436 -162l-20 -264q-9 -45 -43 -45h-54q-31 0 -43 45l-18 264q0 60 41 60h96q41 0 41 -60z" />
    <glyph glyph-name="Egrave" unicode="&#xc8;" horiz-adv-x="770" 
d="M727 381v-381h-534q-136 0 -136 190v1008q0 191 136 191h534v-129h-358q-43 0 -43 -62v-231q0 -62 43 -62h241v-129h-241q-43 0 -43 -63v-269q0 -63 43 -63h358zM401 1499l-176 268h160l147 -268h-131z" />
    <glyph glyph-name="Eacute" unicode="&#xc9;" horiz-adv-x="770" 
d="M727 381v-381h-534q-136 0 -136 190v1008q0 191 136 191h534v-129h-358q-43 0 -43 -62v-231q0 -62 43 -62h241v-129h-241q-43 0 -43 -63v-269q0 -63 43 -63h358zM526 1767l-174 -268h-131l148 268h157z" />
    <glyph glyph-name="Ecircumflex" unicode="&#xca;" horiz-adv-x="770" 
d="M727 381v-381h-534q-136 0 -136 190v1008q0 191 136 191h534v-129h-358q-43 0 -43 -62v-231q0 -62 43 -62h241v-129h-241q-43 0 -43 -63v-269q0 -63 43 -63h358zM496 1520l-113 149l-113 -149h-143l186 247h138l190 -247h-145z" />
    <glyph glyph-name="Edieresis" unicode="&#xcb;" horiz-adv-x="770" 
d="M727 381v-381h-534q-136 0 -136 190v1008q0 191 136 191h534v-129h-358q-43 0 -43 -62v-231q0 -62 43 -62h241v-129h-241q-43 0 -43 -63v-269q0 -63 43 -63h358zM670 1706v-113q0 -61 -41 -61h-144q-41 0 -41 61v113q0 59 41 59h144q41 0 41 -59zM336 1706v-113
q0 -61 -41 -61h-143q-41 0 -41 61v113q0 59 41 59h143q41 0 41 -59z" />
    <glyph glyph-name="Igrave" unicode="&#xcc;" horiz-adv-x="385" 
d="M324 1389v-1389h-267v1389h267zM209 1499l-176 268h160l147 -268h-131z" />
    <glyph glyph-name="Iacute" unicode="&#xcd;" horiz-adv-x="385" 
d="M324 1389v-1389h-267v1389h267zM340 1767l-174 -268h-131l147 268h158z" />
    <glyph glyph-name="Icircumflex" unicode="&#xce;" horiz-adv-x="385" 
d="M324 1389v-1389h-267v1389h267zM309 1520l-112 149l-113 -149h-143l186 247h137l191 -247h-146z" />
    <glyph glyph-name="Idieresis" unicode="&#xcf;" horiz-adv-x="385" 
d="M324 1389v-1389h-267v1389h267zM481 1706v-113q0 -61 -41 -61h-143q-41 0 -41 61v113q0 59 41 59h143q41 0 41 -59zM147 1706v-113q0 -61 -41 -61h-143q-41 0 -41 61v113q0 59 41 59h143q41 0 41 -59z" />
    <glyph glyph-name="Eth" unicode="&#xd0;" horiz-adv-x="903" 
d="M846 1102v-813q0 -289 -230 -289h-559v827h-57v109h57v453h559q230 0 230 -287zM479 936v-109h-155v-383q0 -63 41 -63h143q74 0 74 94v690q0 95 -74 95h-143q-41 0 -41 -62v-262h155z" />
    <glyph glyph-name="Ntilde" unicode="&#xd1;" horiz-adv-x="1081" 
d="M1024 0h-283l-340 729q-21 41 -43 41q-32 0 -32 -76v-694h-269v1389h289l336 -730q14 -38 43 -38q31 0 31 73v695h268v-1389zM748 1714l71 -82q-43 -110 -168 -110q-44 0 -105 33.5t-93 33.5q-60 0 -113 -80l-78 70q60 121 170 121q62 0 118.5 -31t92.5 -31q68 0 105 76z
" />
    <glyph glyph-name="Ograve" unicode="&#xd2;" horiz-adv-x="897" 
d="M840 1198v-1008q0 -89 -40.5 -139.5t-90.5 -50.5h-519q-59 0 -96 50.5t-37 139.5v1008q0 83 39 137t94 54h519q67 0 99 -44.5t32 -146.5zM616 444v754q0 62 -43 62h-172q-43 0 -43 -62v-754q0 -63 43 -63h172q43 0 43 63zM465 1499l-176 268h160l147 -268h-131z" />
    <glyph glyph-name="Oacute" unicode="&#xd3;" horiz-adv-x="897" 
d="M840 1198v-1008q0 -89 -40.5 -139.5t-90.5 -50.5h-519q-59 0 -96 50.5t-37 139.5v1008q0 83 39 137t94 54h519q67 0 99 -44.5t32 -146.5zM616 444v754q0 62 -43 62h-172q-43 0 -43 -62v-754q0 -63 43 -63h172q43 0 43 63zM590 1767l-174 -268h-131l147 268h158z" />
    <glyph glyph-name="Ocircumflex" unicode="&#xd4;" horiz-adv-x="897" 
d="M840 1198v-1008q0 -89 -40.5 -139.5t-90.5 -50.5h-519q-59 0 -96 50.5t-37 139.5v1008q0 83 39 137t94 54h519q67 0 99 -44.5t32 -146.5zM616 444v754q0 62 -43 62h-172q-43 0 -43 -62v-754q0 -63 43 -63h172q43 0 43 63zM561 1520l-112 149l-113 -149h-143l186 247h137
l191 -247h-146z" />
    <glyph glyph-name="Otilde" unicode="&#xd5;" horiz-adv-x="897" 
d="M840 1198v-1008q0 -89 -40.5 -139.5t-90.5 -50.5h-519q-59 0 -96 50.5t-37 139.5v1008q0 83 39 137t94 54h519q67 0 99 -44.5t32 -146.5zM616 444v754q0 62 -43 62h-172q-43 0 -43 -62v-754q0 -63 43 -63h172q43 0 43 63zM655 1714l72 -82q-43 -110 -168 -110
q-44 0 -105.5 33.5t-93.5 33.5q-59 0 -112 -80l-78 70q60 121 170 121q62 0 118.5 -31t92.5 -31q67 0 104 76z" />
    <glyph glyph-name="Odieresis" unicode="&#xd6;" horiz-adv-x="897" 
d="M840 1198v-1008q0 -89 -40.5 -139.5t-90.5 -50.5h-519q-59 0 -96 50.5t-37 139.5v1008q0 83 39 137t94 54h519q67 0 99 -44.5t32 -146.5zM616 444v754q0 62 -43 62h-172q-43 0 -43 -62v-754q0 -63 43 -63h172q43 0 43 63zM729 1706v-113q0 -61 -41 -61h-143q-41 0 -41 61
v113q0 59 41 59h143q41 0 41 -59zM395 1706v-113q0 -61 -41 -61h-143q-41 0 -41 61v113q0 59 41 59h143q41 0 41 -59z" />
    <glyph glyph-name="Oslash" unicode="&#xd8;" horiz-adv-x="897" 
d="M725 1446h121l-43 -98q37 -49 37 -150v-1008q0 -73 -42.5 -131.5t-88.5 -58.5h-508l-17 -37h-123l39 90q-43 46 -43 137v1008q0 69 44.5 130t88.5 61h508zM573 1260h-172q-43 0 -43 -62v-575l258 579q-6 58 -43 58zM616 444v486l-243 -543q12 -6 28 -6h172q43 0 43 63z
" />
    <glyph glyph-name="Ugrave" unicode="&#xd9;" horiz-adv-x="845" 
d="M604 1389h184v-1199q0 -77 -42 -133.5t-91 -56.5h-465q-55 0 -94 60t-39 130v1199h289v-945q0 -63 41 -63h176q41 0 41 63v945zM438 1499l-176 268h160l147 -268h-131z" />
    <glyph glyph-name="Uacute" unicode="&#xda;" horiz-adv-x="845" 
d="M604 1389h184v-1199q0 -77 -42 -133.5t-91 -56.5h-465q-55 0 -94 60t-39 130v1199h289v-945q0 -63 41 -63h176q41 0 41 63v945zM563 1767l-174 -268h-131l148 268h157z" />
    <glyph glyph-name="Ucircumflex" unicode="&#xdb;" horiz-adv-x="845" 
d="M604 1389h184v-1199q0 -77 -42 -133.5t-91 -56.5h-465q-55 0 -94 60t-39 130v1199h289v-945q0 -63 41 -63h176q41 0 41 63v945zM535 1520l-113 149l-113 -149h-143l186 247h137l191 -247h-145z" />
    <glyph glyph-name="Udieresis" unicode="&#xdc;" horiz-adv-x="845" 
d="M604 1389h184v-1199q0 -77 -42 -133.5t-91 -56.5h-465q-55 0 -94 60t-39 130v1199h289v-945q0 -63 41 -63h176q41 0 41 63v945zM705 1706v-113q0 -61 -41 -61h-144q-41 0 -41 61v113q0 59 41 59h144q41 0 41 -59zM371 1706v-113q0 -61 -41 -61h-144q-41 0 -41 61v113
q0 59 41 59h144q41 0 41 -59z" />
    <glyph glyph-name="Yacute" unicode="&#xdd;" horiz-adv-x="880" 
d="M612 1389h246l-219 -1618q-62 -459 -397 -459h-187v633h74q129 0 129 106q0 26 -3 55t-8 64.5t-7 56.5l-185 1162h310l86 -953q6 -65 36 -65q37 0 43 65zM582 1767l-174 -268h-132l148 268h158z" />
    <glyph glyph-name="Thorn" unicode="&#xde;" horiz-adv-x="866" 
d="M57 0v1389h267v-234q0 -65 41 -65h348q56 0 94.5 -51.5t38.5 -137.5v-457q0 -86 -38.5 -137t-94.5 -51h-348q-41 0 -41 -66v-190h-267zM582 444v457q0 62 -41 62h-176q-41 0 -41 -62v-457q0 -61 41 -61h176q41 0 41 61z" />
    <glyph glyph-name="germandbls" unicode="&#xdf;" horiz-adv-x="776" 
d="M281 1309v-1309h-226v1307q0 170 115 170h395q133 0 133 -191v-334q0 -122 -104 -168q125 -58 125 -172v-422q0 -190 -172 -190h-156v381h117q39 0 39 63v211q0 64 -39 64h-117v127h98q39 0 39 61v402q0 80 -55 80h-131q-61 0 -61 -80z" />
    <glyph glyph-name="agrave" unicode="&#xe0;" horiz-adv-x="675" 
d="M616 678v-678h-397q-180 0 -180 236v120q0 236 180 236h262v86q0 78 -61 78h-307v90h368q135 0 135 -168zM481 326v94q0 82 -59 82h-174q-62 0 -62 -82v-94q0 -82 62 -82h174q59 0 59 82zM350 956l-176 269h160l147 -269h-131z" />
    <glyph glyph-name="aacute" unicode="&#xe1;" horiz-adv-x="675" 
d="M616 678v-678h-397q-180 0 -180 236v120q0 236 180 236h262v86q0 78 -61 78h-307v90h368q135 0 135 -168zM481 326v94q0 82 -59 82h-174q-62 0 -62 -82v-94q0 -82 62 -82h174q59 0 59 82zM524 1225l-174 -269h-131l148 269h157z" />
    <glyph glyph-name="acircumflex" unicode="&#xe2;" horiz-adv-x="675" 
d="M616 678v-678h-397q-180 0 -180 236v120q0 236 180 236h262v86q0 78 -61 78h-307v90h368q135 0 135 -168zM481 326v94q0 82 -59 82h-174q-62 0 -62 -82v-94q0 -82 62 -82h174q59 0 59 82zM449 977l-113 149l-113 -149h-143l186 248h137l191 -248h-145z" />
    <glyph glyph-name="atilde" unicode="&#xe3;" horiz-adv-x="675" 
d="M616 678v-678h-397q-180 0 -180 236v120q0 236 180 236h262v86q0 78 -61 78h-307v90h368q135 0 135 -168zM481 326v94q0 82 -59 82h-174q-62 0 -62 -82v-94q0 -82 62 -82h174q59 0 59 82zM549 1171l72 -81q-43 -111 -168 -111q-44 0 -105.5 34t-93.5 34q-60 0 -113 -80
l-78 69q61 121 170 121q62 0 118.5 -30.5t92.5 -30.5q68 0 105 75z" />
    <glyph glyph-name="adieresis" unicode="&#xe4;" horiz-adv-x="675" 
d="M616 678v-678h-397q-180 0 -180 236v120q0 236 180 236h262v86q0 78 -61 78h-307v90h368q135 0 135 -168zM481 326v94q0 82 -59 82h-174q-62 0 -62 -82v-94q0 -82 62 -82h174q59 0 59 82zM625 1163v-112q0 -62 -41 -62h-144q-41 0 -41 62v112q0 60 41 60h144q41 0 41 -60
zM291 1163v-112q0 -62 -41 -62h-144q-40 0 -40 62v112q0 60 40 60h144q41 0 41 -60z" />
    <glyph glyph-name="aring" unicode="&#xe5;" horiz-adv-x="675" 
d="M616 678v-678h-397q-180 0 -180 236v120q0 236 180 236h262v86q0 78 -61 78h-307v90h368q135 0 135 -168zM481 326v94q0 82 -59 82h-174q-62 0 -62 -82v-94q0 -82 62 -82h174q59 0 59 82zM500 1167v-213q0 -25 -17 -42t-43 -17h-184q-26 0 -42.5 18t-16.5 41v213
q0 26 17 42t42 16h184q24 0 42 -16.5t18 -41.5zM393 999v129q0 12 -10 19.5t-25 7.5h-82q-32 0 -32 -27v-129q0 -28 32 -28h82q35 0 35 28z" />
    <glyph glyph-name="ae" unicode="&#xe6;" horiz-adv-x="1044" 
d="M121 846h801q69 0 69 -146q0 -61 -26 -90l-103 -139q-33 -42 -33 -84q0 -47 74 -47h96v-340h-772q-180 0 -180 236v120q0 236 180 236h262v86q0 78 -63 78h-305v90zM831 756h-151q-62 0 -62 -78v-256q0 -90 35 -90q19 0 45 37l174 252q23 26 23 67q0 68 -64 68zM489 307
v113q0 82 -59 82h-172q-65 0 -65 -82v-94q0 -82 65 -82h172q50 0 59 63z" />
    <glyph glyph-name="ccedilla" unicode="&#xe7;" horiz-adv-x="602" 
d="M565 340v-340h-395q-115 0 -115 172v506q0 64 37.5 116t77.5 52h389v-90h-219q-59 0 -59 -78v-256q0 -82 59 -82h225zM362 -162l-20 -264q-9 -45 -43 -45h-53q-31 0 -43 45l-19 264q0 60 41 60h97q40 0 40 -60z" />
    <glyph glyph-name="egrave" unicode="&#xe8;" horiz-adv-x="708" 
d="M172 846h416q69 0 69 -146q0 -53 -26 -90l-105 -139q-30 -38 -30 -84q0 -47 71 -47h97v-340h-492q-115 0 -115 172v506q0 85 27.5 126.5t87.5 41.5zM498 756h-156q-59 0 -59 -78v-256q0 -90 36 -90q20 0 46 37l174 252q22 28 22 67q0 68 -63 68zM377 956l-176 269h159
l148 -269h-131z" />
    <glyph glyph-name="eacute" unicode="&#xe9;" horiz-adv-x="708" 
d="M172 846h416q69 0 69 -146q0 -53 -26 -90l-105 -139q-30 -38 -30 -84q0 -47 71 -47h97v-340h-492q-115 0 -115 172v506q0 85 27.5 126.5t87.5 41.5zM498 756h-156q-59 0 -59 -78v-256q0 -90 36 -90q20 0 46 37l174 252q22 28 22 67q0 68 -63 68zM502 1225l-174 -269h-131
l147 269h158z" />
    <glyph glyph-name="ecircumflex" unicode="&#xea;" horiz-adv-x="708" 
d="M172 846h416q69 0 69 -146q0 -53 -26 -90l-105 -139q-30 -38 -30 -84q0 -47 71 -47h97v-340h-492q-115 0 -115 172v506q0 85 27.5 126.5t87.5 41.5zM498 756h-156q-59 0 -59 -78v-256q0 -90 36 -90q20 0 46 37l174 252q22 28 22 67q0 68 -63 68zM473 977l-113 149
l-112 -149h-144l187 248h137l190 -248h-145z" />
    <glyph glyph-name="edieresis" unicode="&#xeb;" horiz-adv-x="708" 
d="M172 846h416q69 0 69 -146q0 -53 -26 -90l-105 -139q-30 -38 -30 -84q0 -47 71 -47h97v-340h-492q-115 0 -115 172v506q0 85 27.5 126.5t87.5 41.5zM498 756h-156q-59 0 -59 -78v-256q0 -90 36 -90q20 0 46 37l174 252q22 28 22 67q0 68 -63 68zM649 1163v-112
q0 -62 -41 -62h-143q-41 0 -41 62v112q0 60 41 60h143q41 0 41 -60zM315 1163v-112q0 -62 -41 -62h-143q-41 0 -41 62v112q0 60 41 60h143q41 0 41 -60z" />
    <glyph glyph-name="igrave" unicode="&#xec;" horiz-adv-x="342" 
d="M283 846v-846h-226v846h226zM188 956l-176 269h160l147 -269h-131z" />
    <glyph glyph-name="iacute" unicode="&#xed;" horiz-adv-x="342" 
d="M283 846v-846h-226v846h226zM317 1225l-174 -269h-131l148 269h157z" />
    <glyph glyph-name="icircumflex" unicode="&#xee;" horiz-adv-x="342" 
d="M283 846v-846h-226v846h226zM289 977l-113 149l-113 -149h-143l186 248h138l190 -248h-145z" />
    <glyph glyph-name="idieresis" unicode="&#xef;" horiz-adv-x="342" 
d="M283 846v-846h-226v846h226zM459 1163v-112q0 -62 -41 -62h-144q-41 0 -41 62v112q0 60 41 60h144q41 0 41 -60zM125 1163v-112q0 -62 -41 -62h-143q-41 0 -41 62v112q0 60 41 60h143q41 0 41 -60z" />
    <glyph glyph-name="eth" unicode="&#xf0;" 
d="M414 190v295q0 64 -37 64h-187q-34 0 -34 -64v-295q0 -61 32 -61h189q37 0 37 61zM72 1389h450q43 0 78 -52t35 -139v-1008q0 -89 -32 -139.5t-81 -50.5h-356q-54 0 -83.5 47.5t-29.5 142.5v295q0 99 31 147t82 48h211q37 0 37 61v205q0 64 -37 64h-305v379z" />
    <glyph glyph-name="ntilde" unicode="&#xf1;" horiz-adv-x="690" 
d="M633 678v-678h-98v678q0 78 -64 78h-129q-59 0 -59 -78v-678h-226v846h461q42 0 78.5 -51.5t36.5 -116.5zM559 1171l72 -81q-43 -111 -168 -111q-44 0 -105.5 34t-93.5 34q-59 0 -112 -80l-78 69q60 121 170 121q62 0 118.5 -30.5t92.5 -30.5q67 0 104 75z" />
    <glyph glyph-name="ograve" unicode="&#xf2;" 
d="M631 678v-506q0 -72 -34 -122t-81 -50h-346q-35 0 -75 57t-40 115v506q0 65 36.5 116.5t78.5 51.5h346q47 0 81 -48t34 -120zM403 422v256q0 78 -63 78h-156q-61 0 -61 -78v-256q0 -82 61 -82h156q63 0 63 82zM360 956l-176 269h160l148 -269h-132z" />
    <glyph glyph-name="oacute" unicode="&#xf3;" 
d="M631 678v-506q0 -72 -34 -122t-81 -50h-346q-35 0 -75 57t-40 115v506q0 65 36.5 116.5t78.5 51.5h346q47 0 81 -48t34 -120zM403 422v256q0 78 -63 78h-156q-61 0 -61 -78v-256q0 -82 61 -82h156q63 0 63 82zM485 1225l-174 -269h-131l148 269h157z" />
    <glyph glyph-name="ocircumflex" unicode="&#xf4;" 
d="M631 678v-506q0 -72 -34 -122t-81 -50h-346q-35 0 -75 57t-40 115v506q0 65 36.5 116.5t78.5 51.5h346q47 0 81 -48t34 -120zM403 422v256q0 78 -63 78h-156q-61 0 -61 -78v-256q0 -82 61 -82h156q63 0 63 82zM455 977l-113 149l-113 -149h-143l186 248h138l190 -248
h-145z" />
    <glyph glyph-name="otilde" unicode="&#xf5;" 
d="M631 678v-506q0 -72 -34 -122t-81 -50h-346q-35 0 -75 57t-40 115v506q0 65 36.5 116.5t78.5 51.5h346q47 0 81 -48t34 -120zM403 422v256q0 78 -63 78h-156q-61 0 -61 -78v-256q0 -82 61 -82h156q63 0 63 82zM557 1171l72 -81q-43 -111 -168 -111q-44 0 -105.5 34
t-93.5 34q-59 0 -112 -80l-78 69q60 121 170 121q62 0 118.5 -30.5t92.5 -30.5q67 0 104 75z" />
    <glyph glyph-name="odieresis" unicode="&#xf6;" 
d="M631 678v-506q0 -72 -34 -122t-81 -50h-346q-35 0 -75 57t-40 115v506q0 65 36.5 116.5t78.5 51.5h346q47 0 81 -48t34 -120zM403 422v256q0 78 -63 78h-156q-61 0 -61 -78v-256q0 -82 61 -82h156q63 0 63 82zM631 1163v-112q0 -62 -41 -62h-144q-40 0 -40 62v112
q0 60 40 60h144q41 0 41 -60zM297 1163v-112q0 -62 -41 -62h-143q-41 0 -41 62v112q0 60 41 60h143q41 0 41 -60z" />
    <glyph glyph-name="oslash" unicode="&#xf8;" 
d="M430 942h123l-43 -96h6q47 0 81 -48t34 -120v-506q0 -72 -34 -122t-81 -50h-346q-25 0 -41 16l-39 -88h-123l92 201q-4 32 -4 43v506q0 65 36.5 116.5t78.5 51.5h217zM346 756h-162q-61 0 -61 -78v-256q0 -62 33 -76zM403 422v190l-124 -272h61q63 0 63 82z" />
    <glyph glyph-name="ugrave" unicode="&#xf9;" horiz-adv-x="690" 
d="M633 846v-674q0 -172 -115 -172h-346q-44 0 -79.5 52.5t-35.5 119.5v674h226v-424q0 -82 63 -82h125q64 0 64 82v424h98zM362 956l-176 269h160l148 -269h-132z" />
    <glyph glyph-name="uacute" unicode="&#xfa;" horiz-adv-x="690" 
d="M633 846v-674q0 -172 -115 -172h-346q-44 0 -79.5 52.5t-35.5 119.5v674h226v-424q0 -82 63 -82h125q64 0 64 82v424h98zM487 1225l-174 -269h-131l148 269h157z" />
    <glyph glyph-name="ucircumflex" unicode="&#xfb;" horiz-adv-x="690" 
d="M633 846v-674q0 -172 -115 -172h-346q-44 0 -79.5 52.5t-35.5 119.5v674h226v-424q0 -82 63 -82h125q64 0 64 82v424h98zM457 977l-113 149l-113 -149h-143l186 248h138l190 -248h-145z" />
    <glyph glyph-name="udieresis" unicode="&#xfc;" horiz-adv-x="690" 
d="M633 846v-674q0 -172 -115 -172h-346q-44 0 -79.5 52.5t-35.5 119.5v674h226v-424q0 -82 63 -82h125q64 0 64 82v424h98zM633 1163v-112q0 -62 -41 -62h-143q-41 0 -41 62v112q0 60 41 60h143q41 0 41 -60zM299 1163v-112q0 -62 -41 -62h-143q-41 0 -41 62v112
q0 60 41 60h143q41 0 41 -60z" />
    <glyph glyph-name="yacute" unicode="&#xfd;" horiz-adv-x="698" 
d="M467 846h180l-164 -1196q-47 -338 -293 -338h-137v303h56q92 0 92 96q0 33 -5 91.5t-6 84.5l-137 959h228l65 -701q3 -49 25 -49q29 0 32 49zM492 1225l-175 -269h-131l148 269h158z" />
    <glyph glyph-name="thorn" unicode="&#xfe;" horiz-adv-x="671" 
d="M565 422v256q0 78 -61 78h-162q-59 0 -59 -78v-256q0 -82 59 -82h162q61 0 61 82zM633 678v-506q0 -65 -36.5 -118.5t-78.5 -53.5h-176q-59 0 -59 -80v-608h-226v2165h232v-549q0 -82 57 -82h168q119 0 119 -168z" />
    <glyph glyph-name="ydieresis" unicode="&#xff;" horiz-adv-x="698" 
d="M467 846h180l-164 -1196q-47 -338 -293 -338h-137v303h56q92 0 92 96q0 33 -5 91.5t-6 84.5l-137 959h228l65 -701q3 -49 25 -49q29 0 32 49zM637 1163v-112q0 -62 -41 -62h-143q-41 0 -41 62v112q0 60 41 60h143q41 0 41 -60zM303 1163v-112q0 -62 -41 -62h-143
q-41 0 -41 62v112q0 60 41 60h143q41 0 41 -60z" />
    <glyph glyph-name="dotlessi" unicode="&#x131;" horiz-adv-x="342" 
d="M283 846v-846h-226v846h226z" />
    <glyph glyph-name="Lslash" unicode="&#x141;" horiz-adv-x="696" 
d="M543 1241v-119l-221 -84v-286q0 -119 116 -119h205v-633h-457q-133 0 -133 190v746l-53 -18v118l53 19v334h269v-232z" />
    <glyph glyph-name="lslash" unicode="&#x142;" horiz-adv-x="503" 
d="M365 1477v-596l139 51v-119l-139 -51v-762h-226v682l-139 -51v119l139 51v676h226z" />
    <glyph glyph-name="OE" unicode="&#x152;" horiz-adv-x="1206" 
d="M1161 381v-381h-971q-56 0 -94.5 56.5t-38.5 133.5v1008q0 91 41 141t92 50h971v-129h-360q-43 0 -43 -62v-231q0 -62 43 -62h243v-129h-243q-43 0 -43 -63v-269q0 -63 43 -63h360zM616 444v754q0 62 -43 62h-172q-43 0 -43 -62v-754q0 -63 43 -63h172q43 0 43 63z" />
    <glyph glyph-name="oe" unicode="&#x153;" horiz-adv-x="1058" 
d="M170 846h766q74 0 74 -146q0 -58 -29 -90l-104 -139q-33 -48 -33 -84q0 -47 76 -47h96v-340h-846q-35 0 -75 57t-40 115v506q0 65 36.5 116.5t78.5 51.5zM403 422v256q0 78 -61 78h-158q-59 0 -59 -78v-256q0 -82 59 -82h158q61 0 61 82zM846 756h-152q-59 0 -59 -78
v-256q0 -90 33 -90q18 0 47 37l174 252q22 36 22 67q0 68 -65 68z" />
    <glyph glyph-name="Scaron" unicode="&#x160;" horiz-adv-x="743" 
d="M698 946v-756q0 -93 -45.5 -141.5t-124.5 -48.5h-485v633h268q219 0 219 184q0 193 -153 193h-189q-133 0 -133 186q0 70 39 131.5t94 61.5h402v-129h-271q-57 0 -57 -64q0 -57 57 -57h218q161 0 161 -193zM258 1767l113 -149l112 149h144l-187 -247h-137l-190 247h145z
" />
    <glyph glyph-name="scaron" unicode="&#x161;" 
d="M647 580v-459q0 -53 -33 -87t-88 -34h-483v385h299q150 0 150 115q0 112 -140 112h-172q-123 0 -123 115q0 119 123 119h365v-76h-246q-53 0 -53 -43q0 -35 53 -35h199q149 0 149 -112zM240 1225l112 -150l113 150h143l-186 -248h-137l-191 248h146z" />
    <glyph glyph-name="Ydieresis" unicode="&#x178;" horiz-adv-x="880" 
d="M612 1389h246l-219 -1618q-62 -459 -397 -459h-187v633h74q129 0 129 106q0 26 -3 55t-8 64.5t-7 56.5l-185 1162h310l86 -953q6 -65 36 -65q37 0 43 65zM723 1706v-113q0 -61 -41 -61h-143q-41 0 -41 61v113q0 59 41 59h143q41 0 41 -59zM389 1706v-113q0 -61 -41 -61
h-143q-41 0 -41 61v113q0 59 41 59h143q41 0 41 -59z" />
    <glyph glyph-name="Zcaron" unicode="&#x17d;" horiz-adv-x="718" 
d="M659 401v-401h-612v422l340 717q10 33 10 49q0 47 -43 47h-293v154h588v-170l-332 -719q-10 -20 -10 -49q0 -50 47 -50h305zM248 1767l112 -149l113 149h143l-186 -247h-137l-191 247h146z" />
    <glyph glyph-name="zcaron" unicode="&#x17e;" horiz-adv-x="581" 
d="M528 358v-358h-475v387l185 229q26 29 26 72q0 53 -71 53h-140v105h428v-135l-184 -230q-25 -31 -25 -69q0 -54 66 -54h190zM186 1225l113 -150l113 150h143l-186 -248h-138l-190 248h145z" />
    <glyph glyph-name="circumflex" unicode="&#x2c6;" horiz-adv-x="622" 
d="M422 977l-113 149l-112 -149h-144l187 248h137l190 -248h-145z" />
    <glyph glyph-name="caron" unicode="&#x2c7;" horiz-adv-x="622" 
d="M197 1225l112 -150l113 150h143l-186 -248h-137l-191 248h146z" />
    <glyph glyph-name="ring" unicode="&#x2da;" horiz-adv-x="528" 
d="M428 1167v-213q0 -25 -16.5 -42t-42.5 -17h-185q-26 0 -42.5 18t-16.5 41v213q0 26 17 42t42 16h185q24 0 41.5 -16.5t17.5 -41.5zM322 999v129q0 12 -10 19.5t-25 7.5h-82q-33 0 -33 -27v-129q0 -28 33 -28h82q35 0 35 28z" />
    <glyph glyph-name="tilde" unicode="&#x2dc;" horiz-adv-x="722" 
d="M567 1171l72 -81q-43 -111 -168 -111q-44 0 -105.5 34t-93.5 34q-59 0 -112 -80l-78 69q60 121 170 121q62 0 118.5 -30.5t92.5 -30.5q67 0 104 75z" />
    <glyph glyph-name="endash" unicode="&#x2013;" horiz-adv-x="817" 
d="M756 719v-90h-699v90h699z" />
    <glyph glyph-name="emdash" unicode="&#x2014;" horiz-adv-x="1464" 
d="M1405 719v-90h-1348v90h1348z" />
    <glyph glyph-name="quoteleft" unicode="&#x2018;" horiz-adv-x="278" 
d="M35 1204l49 264q6 43 45 43h55q14 0 26.5 -11.5t12.5 -31.5l-10 -264q-2 -35 -10 -47t-37 -12h-94q-37 0 -37 59z" />
    <glyph glyph-name="quoteright" unicode="&#x2019;" horiz-adv-x="278" 
d="M242 1450l-49 -260q-4 -20 -19.5 -32.5t-26.5 -12.5h-55q-42 0 -39 45l10 260q2 36 10.5 48.5t39.5 12.5h92q37 0 37 -61z" />
    <glyph glyph-name="quotesinglbase" unicode="&#x201a;" horiz-adv-x="278" 
d="M242 236l-49 -263q-9 -45 -46 -45h-55q-42 0 -39 45l10 263q2 35 11 48t39 13h92q37 0 37 -61z" />
    <glyph glyph-name="quotedblleft" unicode="&#x201c;" horiz-adv-x="616" 
d="M49 1204l47 264q9 43 47 43h54q39 0 39 -43l-9 -264q-3 -34 -12.5 -46.5t-36.5 -12.5h-94q-35 0 -35 59zM371 1204l49 264q6 43 47 43h51q41 0 41 -43l-10 -264q-2 -34 -11 -46.5t-36 -12.5h-94q-37 0 -37 59z" />
    <glyph glyph-name="quotedblright" unicode="&#x201d;" horiz-adv-x="616" 
d="M565 1450l-49 -260q-9 -45 -45 -45h-53q-42 0 -39 45l8 260q2 36 10.5 48.5t38.5 12.5h94q35 0 35 -61zM242 1450l-49 -260q-4 -20 -19.5 -32.5t-26.5 -12.5h-53q-42 0 -39 45l8 260q2 36 10.5 48.5t39.5 12.5h94q35 0 35 -61z" />
    <glyph glyph-name="quotedblbase" unicode="&#x201e;" horiz-adv-x="616" 
d="M565 236l-49 -263q-9 -45 -45 -45h-53q-42 0 -39 45l8 263q2 35 10.5 48t38.5 13h94q35 0 35 -61zM242 236l-49 -263q-9 -45 -46 -45h-53q-42 0 -39 45l8 263q2 35 11 48t39 13h94q35 0 35 -61z" />
    <glyph glyph-name="bullet" unicode="&#x2022;" horiz-adv-x="784" 
d="M664 721q0 -110 -79.5 -189t-189.5 -79t-189 79t-79 189t79 189t189 79t189.5 -79t79.5 -189z" />
    <glyph glyph-name="ellipsis" unicode="&#x2026;" horiz-adv-x="1441" 
d="M332 172v-109q0 -63 -41 -63h-144q-41 0 -41 63v109q0 61 41 61h144q41 0 41 -61zM836 172v-109q0 -63 -43 -63h-142q-43 0 -43 63v109q0 61 43 61h142q43 0 43 -61zM1337 172v-109q0 -63 -43 -63h-139q-45 0 -45 63v109q0 61 45 61h139q43 0 43 -61z" />
    <glyph glyph-name="guilsinglleft" unicode="&#x2039;" horiz-adv-x="276" 
d="M256 477v-100l-233 201v92l233 202v-104l-131 -106q-12 -9 -12 -25v-27q0 -15 12 -24z" />
    <glyph glyph-name="guilsinglright" unicode="&#x203a;" horiz-adv-x="296" 
d="M31 768v104l233 -204v-95l-233 -196v100l129 109q14 11 14 24v27q0 17 -14 25z" />
    <glyph glyph-name="fraction" unicode="&#x2044;" horiz-adv-x="323" 
d="M-209 0h-147l895 1389h141z" />
    <glyph glyph-name="Euro" unicode="&#x20ac;" horiz-adv-x="825" 
d="M782 381v-381h-524q-133 0 -133 190v367h-88l18 123h70v141h-78l14 121h64v256q0 66 43.5 128.5t89.5 62.5h524l-32 -129h-320q-43 0 -43 -62v-256h289l-33 -121h-256v-141h221l-28 -123h-193v-113q0 -63 43 -63h352z" />
    <glyph glyph-name="trademark" unicode="&#x2122;" horiz-adv-x="1388" 
d="M1323 541h-154v411h-4q-13 0 -16 -14l-92 -379q-3 -18 -19 -18h-102q-15 0 -18 18l-93 379q-6 14 -16 14h-4v-411h-154v848h119q67 0 82 -70l125 -531q3 -8 10 -8t10 8l123 531q18 70 84 70h119v-848zM362 541h-155v565q0 27 -29 27h-151v256h516v-256h-154
q-27 0 -27 -27v-565z" />
    <glyph glyph-name="minus" unicode="&#x2212;" horiz-adv-x="610" 
d="M594 690v-90h-578v90h578z" />
    <glyph glyph-name="CR" horiz-adv-x="313" 
 />
    </font>
</defs>
</svg>
